<?xml version="1.0" encoding="UTF-8"?>
<svg xmlns:xlink="http://www.w3.org/1999/xlink" xmlns="http://www.w3.org/2000/svg" contentScriptType="text/ecmascript" width="908" zoomAndPan="magnify" contentStyleType="text/css" height="1471" preserveAspectRatio="xMidYMid meet" version="1.0">
<g>
<path style="fill:none;stroke:rgb(0,0,0);stroke-width:1" d="M197.875000 271.488208 C197.875000 256.240527 197.875000 240.992847 197.875000 225.745166 "/>
<path style="fill:rgb(0,0,0);stroke:none" d="M197.875000 225.745166 L194.291714 238.241568 L201.458286 238.241568 z"/>
</g>
<g>
<path style="fill:none;stroke:rgb(0,0,0);stroke-width:1" d="M604.375000 155.901660 C604.375000 134.234993 604.375000 112.568327 604.375000 90.901660 "/>
<path style="fill:rgb(0,0,0);stroke:none" d="M604.375000 90.901660 L600.791714 103.398062 L607.958286 103.398062 z"/>
</g>
<g>
<path style="fill:none;stroke:rgb(0,0,0);stroke-width:1" d="M197.875000 159.607959 C197.875000 157.385737 197.875000 155.163515 197.875000 152.941292 197.875000 149.607959 197.875000 149.607959 207.791667 135.039193 211.097222 130.182937 214.402778 125.326682 217.708333 120.470426 227.625000 105.901660 227.625000 105.901660 227.625000 100.901660 227.625000 97.568327 227.625000 94.234993 227.625000 90.901660 "/>
<path style="fill:rgb(0,0,0);stroke:none" d="M227.625000 90.901660 L224.041714 103.398062 L231.208286 103.398062 z"/>
</g>
<g>
<path style="fill:none;stroke:rgb(0,0,0);stroke-width:1" d="M86.000000 935.757373 C86.000000 933.535151 86.000000 931.312929 86.000000 929.090706 86.000000 925.757373 86.000000 925.757373 126.722222 912.424040 140.296296 907.979595 153.870370 903.535151 167.444444 899.090706 208.166667 885.757373 208.166667 885.757373 208.166667 880.757373 208.166667 877.424040 208.166667 874.090706 208.166667 870.757373 "/>
<path style="fill:rgb(0,0,0);stroke:none" d="M208.166667 870.757373 L204.583381 883.253775 L211.749952 883.253775 z"/>
</g>
<g>
<path style="fill:none;stroke:rgb(0,0,0);stroke-width:1" d="M604.375000 269.451465 C604.375000 256.118132 604.375000 242.784798 604.375000 229.451465 "/>
<path style="fill:rgb(0,0,0);stroke:none" d="M604.375000 229.451465 L600.791714 241.947867 L607.958286 241.947867 z"/>
</g>
<g>
<path style="fill:none;stroke:rgb(0,0,0);stroke-width:1" d="M427.125000 531.462622 C427.125000 529.240400 427.125000 527.018178 427.125000 524.795955 427.125000 521.462622 427.125000 521.462622 409.375000 500.562622 403.458333 493.595955 397.541667 486.629289 391.625000 479.662622 373.875000 458.762622 373.875000 458.762622 373.875000 382.325570 373.875000 331.367535 373.875000 280.409500 373.875000 229.451465 "/>
<path style="fill:rgb(0,0,0);stroke:none" d="M373.875000 229.451465 L370.291714 241.947867 L377.458286 241.947867 z"/>
</g>
<g>
<path style="fill:none;stroke:rgb(0,0,0);stroke-width:1" d="M571.500000 1367.891602 C571.500000 1367.891602 571.500000 1367.891602 571.500000 1367.891602 571.500000 1367.891602 571.500000 1367.891602 571.500000 1367.891602 571.500000 1367.891602 571.500000 1367.891602 571.500000 1367.891602 571.500000 1367.891602 571.500000 1367.891602 571.500000 1367.891602 571.500000 1165.155615 571.500000 962.419629 571.500000 759.683643 "/>
<path style="fill:rgb(0,0,0);stroke:none" d="M571.500000 759.683643 L567.916714 772.180045 L575.083286 772.180045 z"/>
</g>
<g>
<path style="fill:none;stroke:rgb(0,0,0);stroke-width:1" d="M545.500000 1367.891602 C545.500000 1365.669379 545.500000 1363.447157 545.500000 1361.224935 545.500000 1357.891602 545.500000 1357.891602 448.500000 1328.791602 416.166667 1319.091602 383.833333 1309.391602 351.500000 1299.691602 254.500000 1270.591602 254.500000 1270.591602 254.500000 1265.591602 254.500000 1262.258268 254.500000 1258.924935 254.500000 1255.591602 "/>
<path style="fill:rgb(0,0,0);stroke:none" d="M254.500000 1255.591602 L250.916714 1268.088004 L258.083286 1268.088004 z"/>
</g>
<g>
<path style="fill:none;stroke:rgb(0,0,0);stroke-width:1" d="M254.500000 936.987598 C254.500000 936.987598 254.500000 936.987598 254.500000 936.987598 254.500000 936.987598 254.500000 936.987598 254.500000 936.987598 254.500000 936.987598 254.500000 936.987598 254.500000 936.987598 254.500000 936.987598 254.500000 936.987598 254.500000 936.987598 254.500000 914.910856 254.500000 892.834115 254.500000 870.757373 "/>
<path style="fill:rgb(0,0,0);stroke:none" d="M254.500000 870.757373 L250.916714 883.253775 L258.083286 883.253775 z"/>
</g>
<g>
<path style="fill:none;stroke:rgb(0,0,0);stroke-width:1" d="M417.500000 687.371875 C417.500000 685.149653 417.500000 682.927431 417.500000 680.705208 417.500000 677.371875 417.500000 677.371875 420.708333 652.068140 421.777778 643.633561 422.847222 635.198983 423.916667 626.764404 427.125000 601.460669 427.125000 601.460669 427.125000 596.460669 427.125000 593.127336 427.125000 589.794002 427.125000 586.460669 "/>
<path style="fill:rgb(0,0,0);stroke:none" d="M427.125000 586.460669 L423.541714 598.957071 L430.708286 598.957071 z"/>
</g>
<g>
<path style="fill:none;stroke:rgb(0,0,0);stroke-width:1" d="M558.500000 1367.891602 C558.500000 1365.669379 558.500000 1363.447157 558.500000 1361.224935 558.500000 1357.891602 558.500000 1357.891602 549.000000 1328.791602 545.833333 1319.091602 542.666667 1309.391602 539.500000 1299.691602 530.000000 1270.591602 530.000000 1270.591602 530.000000 1125.467904 530.000000 1077.093338 530.000000 1028.718772 530.000000 980.344206 530.000000 835.220508 530.000000 835.220508 492.500000 815.454232 480.000000 808.865473 467.500000 802.276714 455.000000 795.687956 417.500000 775.921680 417.500000 775.921680 417.500000 770.921680 417.500000 767.588346 417.500000 764.255013 417.500000 760.921680 "/>
<path style="fill:rgb(0,0,0);stroke:none" d="M417.500000 760.921680 L413.916714 773.418082 L421.083286 773.418082 z"/>
</g>
<g>
<path style="fill:none;stroke:rgb(0,0,0);stroke-width:1" d="M197.875000 377.625415 C197.875000 377.625415 197.875000 377.625415 197.875000 377.625415 197.875000 377.625415 197.875000 377.625415 197.875000 377.625415 197.875000 377.625415 197.875000 377.625415 197.875000 377.625415 197.875000 377.625415 197.875000 377.625415 197.875000 377.625415 197.875000 364.292082 197.875000 350.958748 197.875000 337.625415 "/>
<path style="fill:rgb(0,0,0);stroke:none" d="M197.875000 337.625415 L194.291714 350.121817 L201.458286 350.121817 z"/>
</g>
<g>
<path style="fill:none;stroke:rgb(0,0,0);stroke-width:1" d="M467.625000 531.462622 C467.625000 529.240400 467.625000 527.018178 467.625000 524.795955 467.625000 521.462622 467.625000 521.462622 513.208333 484.539754 528.402778 472.232132 543.597222 459.924509 558.791667 447.616886 604.375000 410.694019 604.375000 410.694019 604.375000 387.016732 604.375000 371.231874 604.375000 355.447016 604.375000 339.662158 "/>
<path style="fill:rgb(0,0,0);stroke:none" d="M604.375000 339.662158 L600.791714 352.158560 L607.958286 352.158560 z"/>
</g>
<g>
<path style="fill:none;stroke:rgb(0,0,0);stroke-width:1" d="M571.500000 688.609912 C571.500000 685.935080 571.500000 683.260248 571.500000 680.585417 571.500000 676.573169 571.500000 676.573169 530.125000 651.535669 516.333333 643.189836 502.541667 634.844002 488.750000 626.498169 447.375000 601.460669 447.375000 601.460669 447.375000 596.460669 447.375000 593.127336 447.375000 589.794002 447.375000 586.460669 "/>
<path style="fill:rgb(0,0,0);stroke:none" d="M447.375000 586.460669 L443.791714 598.957071 L450.958286 598.957071 z"/>
</g>
<g>
<path style="fill:none;stroke:rgb(0,0,0);stroke-width:1" d="M436.000000 937.419116 C436.000000 935.196894 436.000000 932.974672 436.000000 930.752450 436.000000 927.419116 436.000000 927.419116 390.944444 913.531868 375.925926 908.902786 360.907407 904.273703 345.888889 899.644621 300.833333 885.757373 300.833333 885.757373 300.833333 880.757373 300.833333 877.424040 300.833333 874.090706 300.833333 870.757373 "/>
<path style="fill:rgb(0,0,0);stroke:none" d="M300.833333 870.757373 L297.250048 883.253775 L304.416619 883.253775 z"/>
</g>
<g>
<path style="fill:none;stroke:rgb(0,0,0);stroke-width:1" d="M597.500000 1367.891602 C597.500000 1365.669379 597.500000 1363.447157 597.500000 1361.224935 597.500000 1357.891602 597.500000 1357.891602 660.166667 1311.267065 681.055556 1295.725553 701.944444 1280.184041 722.833333 1264.642529 785.500000 1218.017993 785.500000 1218.017993 785.500000 842.168709 785.500000 591.602520 785.500000 341.036331 785.500000 90.470142 "/>
<path style="fill:rgb(0,0,0);stroke:none" d="M785.500000 90.470142 L781.916714 102.966544 L789.083286 102.966544 z"/>
</g>
<g>
<path style="fill:none;stroke:rgb(0,0,0);stroke-width:1" d="M373.875000 155.901660 C373.875000 153.679438 373.875000 151.457216 373.875000 149.234993 373.875000 145.901660 373.875000 145.901660 347.125000 132.568327 338.208333 128.123882 329.291667 123.679438 320.375000 119.234993 293.625000 105.901660 293.625000 105.901660 293.625000 100.901660 293.625000 97.568327 293.625000 94.234993 293.625000 90.901660 "/>
<path style="fill:rgb(0,0,0);stroke:none" d="M293.625000 90.901660 L290.041714 103.398062 L297.208286 103.398062 z"/>
</g>
<g>
<path style="fill:none;stroke:rgb(0,0,0);stroke-width:1" d="M447.375000 531.462622 C447.375000 531.462622 447.375000 531.462622 447.375000 531.462622 447.375000 531.462622 447.375000 531.462622 447.375000 531.462622 447.375000 531.462622 447.375000 531.462622 447.375000 531.462622 447.375000 531.462622 447.375000 531.462622 447.375000 531.462622 447.375000 384.877808 447.375000 238.292993 447.375000 91.708179 "/>
<path style="fill:rgb(0,0,0);stroke:none" d="M447.375000 91.708179 L443.791714 104.204581 L450.958286 104.204581 z"/>
</g>
<g>
<path style="fill:none;stroke:rgb(0,0,0);stroke-width:1" d="M308.500000 1071.831104 C308.500000 1069.608881 308.500000 1067.386659 308.500000 1065.164437 308.500000 1061.831104 308.500000 1061.831104 351.000000 1047.943856 365.166667 1043.314773 379.333333 1038.685691 393.500000 1034.056608 436.000000 1020.169360 436.000000 1020.169360 436.000000 1015.169360 436.000000 1011.836027 436.000000 1008.502694 436.000000 1005.169360 "/>
<path style="fill:rgb(0,0,0);stroke:none" d="M436.000000 1005.169360 L432.416714 1017.665762 L439.583286 1017.665762 z"/>
</g>
<g>
<path style="fill:none;stroke:rgb(0,0,0);stroke-width:1" d="M200.500000 1071.831104 C200.500000 1069.608881 200.500000 1067.386659 200.500000 1065.164437 200.500000 1061.831104 200.500000 1061.831104 162.333333 1048.497770 149.611111 1044.053326 136.888889 1039.608881 124.166667 1035.164437 86.000000 1021.831104 86.000000 1021.831104 86.000000 1016.831104 86.000000 1013.497770 86.000000 1010.164437 86.000000 1006.831104 "/>
<path style="fill:rgb(0,0,0);stroke:none" d="M86.000000 1006.831104 L82.416714 1019.327506 L89.583286 1019.327506 z"/>
</g>
<g>
<path style="fill:none;stroke:rgb(0,0,0);stroke-width:1" d="M254.500000 688.609912 C254.500000 686.387690 254.500000 684.165468 254.500000 681.943245 254.500000 678.609912 254.500000 678.609912 305.291667 652.893498 322.222222 644.321360 339.152778 635.749221 356.083333 627.177083 406.875000 601.460669 406.875000 601.460669 406.875000 596.460669 406.875000 593.127336 406.875000 589.794002 406.875000 586.460669 "/>
<path style="fill:rgb(0,0,0);stroke:none" d="M406.875000 586.460669 L403.291714 598.957071 L410.458286 598.957071 z"/>
</g>
<g>
<path style="fill:none;stroke:rgb(0,0,0);stroke-width:1" d="M254.500000 1180.444385 C254.500000 1167.111051 254.500000 1153.777718 254.500000 1140.444385 "/>
<path style="fill:rgb(0,0,0);stroke:none" d="M254.500000 1140.444385 L250.916714 1152.940787 L258.083286 1152.940787 z"/>
</g>
<g>
<path style="fill:none;stroke:rgb(0,0,0);stroke-width:1" d="M584.500000 1367.891602 C584.500000 1367.891602 584.500000 1367.891602 584.500000 1367.891602 584.500000 1367.891602 584.500000 1367.891602 584.500000 1367.891602 584.500000 1367.891602 584.500000 1367.891602 584.500000 1367.891602 584.500000 1367.891602 584.500000 1367.891602 584.500000 1367.891602 584.500000 1365.669379 584.500000 1363.447157 584.500000 1361.224935 584.500000 1357.891602 584.500000 1357.891602 629.000000 1311.267065 643.833333 1295.725553 658.666667 1280.184041 673.500000 1264.642529 718.000000 1218.017993 718.000000 1218.017993 718.000000 1065.918791 718.000000 964.519322 718.000000 863.119854 718.000000 761.720386 "/>
<path style="fill:rgb(0,0,0);stroke:none" d="M718.000000 761.720386 L714.416714 774.216788 L721.583286 774.216788 z"/>
</g>
<g>
<path style="fill:none;stroke:rgb(0,0,0);stroke-width:1" d="M254.500000 799.683643 C254.500000 786.350309 254.500000 773.016976 254.500000 759.683643 "/>
<path style="fill:rgb(0,0,0);stroke:none" d="M254.500000 759.683643 L250.916714 772.180045 L258.083286 772.180045 z"/>
</g>
<g>
<path style="fill:none;stroke:rgb(0,0,0);stroke-width:1" d="M254.500000 1071.831104 C254.500000 1071.831104 254.500000 1071.831104 254.500000 1071.831104 254.500000 1071.831104 254.500000 1071.831104 254.500000 1071.831104 254.500000 1071.831104 254.500000 1071.831104 254.500000 1071.831104 254.500000 1071.831104 254.500000 1071.831104 254.500000 1071.831104 254.500000 1049.754362 254.500000 1027.677620 254.500000 1005.600879 "/>
<path style="fill:rgb(0,0,0);stroke:none" d="M254.500000 1005.600879 L250.916714 1018.097281 L258.083286 1018.097281 z"/>
</g>
<g>
<path style="fill:none;stroke:rgb(0,0,0);stroke-width:1" d="M406.875000 531.462622 C406.875000 529.240400 406.875000 527.018178 406.875000 524.795955 406.875000 521.462622 406.875000 521.462622 337.208333 500.562622 313.986111 493.595955 290.763889 486.629289 267.541667 479.662622 197.875000 458.762622 197.875000 458.762622 197.875000 453.762622 197.875000 450.429289 197.875000 447.095955 197.875000 443.762622 "/>
<path style="fill:rgb(0,0,0);stroke:none" d="M197.875000 443.762622 L194.291714 456.259024 L201.458286 456.259024 z"/>
</g>
<g>
<path style="fill:none;stroke:rgb(0,0,0);stroke-width:1" d="M718.000000 686.573169 C718.000000 684.350947 718.000000 682.128725 718.000000 679.906502 718.000000 676.573169 718.000000 676.573169 634.541667 651.535669 606.722222 643.189836 578.902778 634.844002 551.083333 626.498169 467.625000 601.460669 467.625000 601.460669 467.625000 596.460669 467.625000 593.127336 467.625000 589.794002 467.625000 586.460669 "/>
<path style="fill:rgb(0,0,0);stroke:none" d="M467.625000 586.460669 L464.041714 598.957071 L471.208286 598.957071 z"/>
</g>
<g>
<rect x="185.0" y="799.683642578" width="139.0" style="fill:rgb(255,255,255);stroke-width:1;stroke:rgb(0,0,0)" rx="10" ry="10" height="71.0737304688"/>
<text style="fill:rgb(0,0,0);font-family:Arial;font-size:15px">
<tspan x="239.0" y="828.829650879">edw.</tspan>
<tspan x="193.0" y="849.315490723">p_update_cnt_opid</tspan>
</text>
</g>
<g>
<rect x="539.0" y="1367.89160156" width="65.0" style="fill:rgb(255,255,0);stroke-width:1;stroke:rgb(0,0,0)" rx="10" ry="10" height="56.1083984375"/>
<text style="fill:rgb(0,0,0);font-family:Arial;font-size:20px">
<tspan x="553.5" y="1400.75634766">ETL</tspan>
</text>
</g>
<g>
<rect x="550.875" y="155.901660156" width="107.0" style="fill:rgb(255,255,255);stroke-width:1;stroke:rgb(0,0,0)" rx="10" ry="10" height="73.5498046875"/>
<text style="fill:rgb(0,0,0);font-family:Arial;font-size:16px">
<tspan x="589.375" y="185.797653198">ods.</tspan>
<tspan x="558.875" y="207.649215698">p_rst_delay()</tspan>
</text>
</g>
<g>
<rect x="173.5" y="1071.83110352" width="162.0" style="fill:rgb(255,255,255);stroke-width:1;stroke:rgb(0,0,0)" rx="10" ry="10" height="68.61328125"/>
<text style="fill:rgb(0,0,0);font-family:Arial;font-size:14px">
<tspan x="240.0" y="1100.24267578">edw.</tspan>
<tspan x="181.5" y="1119.36279297">p_fct_detail_scgpwg2()</tspan>
</text>
</g>
<g>
<rect x="357.0" y="937.419116211" width="158.0" style="fill:rgb(255,255,255);stroke-width:1;stroke:rgb(0,0,0)" rx="10" ry="10" height="67.7502441406"/>
<text style="fill:rgb(0,0,0);font-family:Arial;font-size:14px">
<tspan x="421.5" y="965.830749512">edw.</tspan>
<tspan x="365.0" y="984.268005371">p_rst_finish_frontline()</tspan>
</text>
</g>
<g>
<rect x="507.5" y="688.609912109" width="128.0" style="fill:rgb(255,255,255);stroke-width:1;stroke:rgb(0,0,0)" rx="10" ry="10" height="71.0737304688"/>
<text style="fill:rgb(0,0,0);font-family:Arial;font-size:15px">
<tspan x="556.0" y="717.75592041">edw.</tspan>
<tspan x="515.5" y="738.241760254">p_mid_finish_lldd</tspan>
</text>
</g>
<g>
<rect x="396.75" y="531.46262207" width="81.0" style="fill:rgb(255,255,0);stroke-width:1;stroke:rgb(0,0,0)" rx="10" ry="10" height="54.998046875"/>
<text style="fill:rgb(0,0,0);font-family:Arial;font-size:19px">
<tspan x="404.75" y="563.577392578">postgre</tspan>
</text>
</g>
<g>
<rect x="357.5" y="687.371875" width="120.0" style="fill:rgb(255,255,255);stroke-width:1;stroke:rgb(0,0,0)" rx="10" ry="10" height="73.5498046875"/>
<text style="fill:rgb(0,0,0);font-family:Arial;font-size:16px">
<tspan x="401.0" y="717.267883301">edw.</tspan>
<tspan x="365.5" y="739.119445801">p_gmi_receive</tspan>
</text>
</g>
<g>
<rect x="710.0" y="20.2594482422" width="151.0" style="fill:rgb(255,255,255);stroke-width:1;stroke:rgb(0,0,0)" rx="10" ry="10" height="70.2106933594"/>
<text style="fill:rgb(0,0,0);font-family:Arial;font-size:15px">
<tspan x="771.5" y="49.4054450989">ods.</tspan>
<tspan x="718.0" y="69.2084197998">p_rst_plan_monitor()</tspan>
</text>
</g>
<g>
<rect x="110.375" y="159.607958984" width="175.0" style="fill:rgb(255,255,255);stroke-width:1;stroke:rgb(0,0,0)" rx="10" ry="10" height="66.1372070312"/>
<text style="fill:rgb(0,0,0);font-family:Arial;font-size:13px">
<tspan x="185.375" y="187.269577026">ods.</tspan>
<tspan x="118.375" y="205.023971558">p_mid_remainder_frontline()</tspan>
</text>
</g>
<g>
<rect x="108.875" y="271.488208008" width="178.0" style="fill:rgb(255,255,255);stroke-width:1;stroke:rgb(0,0,0)" rx="10" ry="10" height="66.1372070312"/>
<text style="fill:rgb(0,0,0);font-family:Arial;font-size:13px">
<tspan x="185.375" y="299.149841309">ods.</tspan>
<tspan x="116.875" y="316.90423584">p_mid_remainder_backline()</tspan>
</text>
</g>
<g>
<rect x="200.5" y="1180.44438477" width="108.0" style="fill:rgb(255,255,255);stroke-width:1;stroke:rgb(0,0,0)" rx="10" ry="10" height="75.1472167969"/>
<text style="fill:rgb(0,0,0);font-family:Arial;font-size:17px">
<tspan x="237.5" y="1211.07470703">edw.</tspan>
<tspan x="208.5" y="1233.60913086">p_cnt_opid()</tspan>
</text>
</g>
<g>
<rect x="665.5" y="686.573168945" width="105.0" style="fill:rgb(255,255,255);stroke-width:1;stroke:rgb(0,0,0)" rx="10" ry="10" height="75.1472167969"/>
<text style="fill:rgb(0,0,0);font-family:Arial;font-size:17px">
<tspan x="701.0" y="717.203552246">edw.</tspan>
<tspan x="673.5" y="739.737976074">p_dim_lldd()</tspan>
</text>
</g>
<g>
<rect x="182.0" y="936.987597656" width="145.0" style="fill:rgb(255,255,255);stroke-width:1;stroke:rgb(0,0,0)" rx="10" ry="10" height="68.61328125"/>
<text style="fill:rgb(0,0,0);font-family:Arial;font-size:14px">
<tspan x="240.0" y="965.399230957">edw.</tspan>
<tspan x="190.0" y="984.519348145">p_rst_finish_zipper()</tspan>
</text>
</g>
<g>
<rect x="20.0" y="935.757373047" width="132.0" style="fill:rgb(255,255,255);stroke-width:1;stroke:rgb(0,0,0)" rx="10" ry="10" height="71.0737304688"/>
<text style="fill:rgb(0,0,0);font-family:Arial;font-size:15px">
<tspan x="70.5" y="964.903381348">edw.</tspan>
<tspan x="28.0" y="985.389221191">p_rst_finish_sku()</tspan>
</text>
</g>
<g>
<rect x="181.5" y="688.609912109" width="146.0" style="fill:rgb(255,255,255);stroke-width:1;stroke:rgb(0,0,0)" rx="10" ry="10" height="71.0737304688"/>
<text style="fill:rgb(0,0,0);font-family:Arial;font-size:15px">
<tspan x="239.0" y="717.75592041">edw.</tspan>
<tspan x="189.5" y="738.241760254">p_fct_core_process</tspan>
</text>
</g>
<g>
<rect x="538.375" y="19.8279296875" width="132.0" style="fill:rgb(255,255,255);stroke-width:1;stroke:rgb(0,0,0)" rx="10" ry="10" height="71.0737304688"/>
<text style="fill:rgb(0,0,0);font-family:Arial;font-size:15px">
<tspan x="590.375" y="48.9739265442">ods.</tspan>
<tspan x="546.375" y="69.4597625732">p_rst_delay_last()</tspan>
</text>
</g>
<g>
<rect x="386.375" y="19.0214111328" width="122.0" style="fill:rgb(255,255,255);stroke-width:1;stroke:rgb(0,0,0)" rx="10" ry="10" height="72.6867675781"/>
<text style="fill:rgb(0,0,0);font-family:Arial;font-size:16px">
<tspan x="432.375" y="48.9174079895">ods.</tspan>
<tspan x="394.375" y="70.0861053467">p_rst_monitor()</tspan>
</text>
</g>
<g>
<rect x="111.375" y="377.625415039" width="173.0" style="fill:rgb(255,255,255);stroke-width:1;stroke:rgb(0,0,0)" rx="10" ry="10" height="66.1372070312"/>
<text style="fill:rgb(0,0,0);font-family:Arial;font-size:13px">
<tspan x="185.375" y="405.28704834">ods.</tspan>
<tspan x="119.375" y="423.041442871">p_mid_remainder_prepare()</tspan>
</text>
</g>
<g>
<rect x="194.625" y="19.8279296875" width="132.0" style="fill:rgb(255,255,255);stroke-width:1;stroke:rgb(0,0,0)" rx="10" ry="10" height="71.0737304688"/>
<text style="fill:rgb(0,0,0);font-family:Arial;font-size:15px">
<tspan x="246.625" y="48.9739265442">ods.</tspan>
<tspan x="202.625" y="69.4597625732">p_fct_remainder()</tspan>
</text>
</g>
<g>
<rect x="315.375" y="155.901660156" width="117.0" style="fill:rgb(255,255,255);stroke-width:1;stroke:rgb(0,0,0)" rx="10" ry="10" height="73.5498046875"/>
<text style="fill:rgb(0,0,0);font-family:Arial;font-size:16px">
<tspan x="358.875" y="185.797653198">ods.</tspan>
<tspan x="323.375" y="207.649215698">dim_material()</tspan>
</text>
</g>
<g>
<rect x="533.375" y="269.451464844" width="142.0" style="fill:rgb(255,255,255);stroke-width:1;stroke:rgb(0,0,0)" rx="10" ry="10" height="70.2106933594"/>
<text style="fill:rgb(0,0,0);font-family:Arial;font-size:15px">
<tspan x="590.375" y="298.597473145">ods.</tspan>
<tspan x="541.375" y="318.40045166">p_fct_delay_order()</tspan>
</text>
</g>
</svg>
