<?xml version="1.0" encoding="UTF-8" standalone="no"?><svg xmlns="http://www.w3.org/2000/svg" xmlns:xlink="http://www.w3.org/1999/xlink" contentScriptType="application/ecmascript" contentStyleType="text/css" height="110px" preserveAspectRatio="none" style="width:983px;height:110px;" version="1.1" viewBox="0 0 983 110"
    width="983px" zoomAndPan="magnify"><defs><filter height="300%" id="fc5quza3gidpx" width="300%" x="-1" y="-1"><feGaussianBlur result="blurOut" stdDeviation="2.0"/><feColorMatrix in="blurOut" result="blurOut2" type="matrix" values="0 0 0 0 0 0 0 0 0 0 0 0 0 0 0 0 0 0 .4 0"/><feOffset dx="4.0" dy="4.0" in="blurOut2" result="blurOut3"/><feBlend in="SourceGraphic" in2="blurOut3" mode="normal"/></filter></defs><g><!--entity edw.p_cnt_opid()--><rect fill="#FEFECE" filter="url(#fc5quza3gidpx)" height="39.1201" style="stroke: #A80036; stroke-width: 1.5;" width="129" x="6" y="60"/><rect fill="#FEFECE" height="5" style="stroke: #A80036; stroke-width: 1.5;" width="10" x="1" y="65"/><rect fill="#FEFECE" height="5" style="stroke: #A80036; stroke-width: 1.5;" width="10" x="1" y="89.1201"/><text fill="#000000" font-family="sans-serif" font-size="14" lengthAdjust="spacingAndGlyphs" textLength="109" x="16" y="86.0439">edw.p_cnt_opid()</text><!--entity edw.p_fct_detail_scgpwg2()--><rect fill="#FEFECE" filter="url(#fc5quza3gidpx)" height="39.1201" style="stroke: #A80036; stroke-width: 1.5;" width="195" x="170" y="60"/><rect fill="#FEFECE" height="5" style="stroke: #A80036; stroke-width: 1.5;" width="10" x="165" y="65"/><rect fill="#FEFECE" height="5" style="stroke: #A80036; stroke-width: 1.5;" width="10" x="165" y="89.1201"/><text fill="#000000" font-family="sans-serif" font-size="14" lengthAdjust="spacingAndGlyphs" textLength="175" x="180" y="86.0439">edw.p_fct_detail_scgpwg2()</text><!--entity edw.p_rst_finish_frontline--><rect fill="#FEFECE" filter="url(#fc5quza3gidpx)" height="39.1201" style="stroke: #A80036; stroke-width: 1.5;" width="181" x="791" y="60"/><rect fill="#FEFECE" height="5" style="stroke: #A80036; stroke-width: 1.5;" width="10" x="786" y="65"/><rect fill="#FEFECE" height="5" style="stroke: #A80036; stroke-width: 1.5;" width="10" x="786" y="89.1201"/><text fill="#000000" font-family="sans-serif" font-size="14" lengthAdjust="spacingAndGlyphs" textLength="161" x="801" y="86.0439">edw.p_rst_finish_frontline</text><!--entity edw.p_rst_finish_sku--><rect fill="#FEFECE" filter="url(#fc5quza3gidpx)" height="39.1201" style="stroke: #A80036; stroke-width: 1.5;" width="152" x="603.5" y="60"/><rect fill="#FEFECE" height="5" style="stroke: #A80036; stroke-width: 1.5;" width="10" x="598.5" y="65"/><rect fill="#FEFECE" height="5" style="stroke: #A80036; stroke-width: 1.5;" width="10" x="598.5" y="89.1201"/><text fill="#000000" font-family="sans-serif" font-size="14" lengthAdjust="spacingAndGlyphs" textLength="132" x="613.5" y="86.0439">edw.p_rst_finish_sku</text><!--entity edw.p_rst_finish_zipper--><rect fill="#FEFECE" filter="url(#fc5quza3gidpx)" height="39.1201" style="stroke: #A80036; stroke-width: 1.5;" width="168" x="400.5" y="60"/><rect fill="#FEFECE" height="5" style="stroke: #A80036; stroke-width: 1.5;" width="10" x="395.5" y="65"/><rect fill="#FEFECE" height="5" style="stroke: #A80036; stroke-width: 1.5;" width="10" x="395.5" y="89.1201"/><text fill="#000000" font-family="sans-serif" font-size="14" lengthAdjust="spacingAndGlyphs" textLength="148" x="410.5" y="86.0439">edw.p_rst_finish_zipper</text><!--link edw.p_cnt_opid() to edw.p_fct_detail_scgpwg2()--><path d="M135.141,79.5 C144.974,79.5 154.807,79.5 164.64,79.5 " fill="none" id="edw.p_cnt_opid()-edw.p_fct_detail_scgpwg2()" style="stroke: #A80036; stroke-width: 1.0;"/><polygon fill="#A80036" points="169.782,79.5,160.782,75.5,164.782,79.5,160.782,83.5,169.782,79.5" style="stroke: #A80036; stroke-width: 1.0;"/><!--link edw.p_fct_detail_scgpwg2() to edw.p_rst_finish_frontline--><path d="M308.517,59.9657 C334.394,48.7429 368.884,35.7624 401,30 C556.298,2.1357 600.998,0.5363 756,30 C784.475,35.4126 814.746,47.1592 838.424,57.8513 " fill="none" id="edw.p_fct_detail_scgpwg2()-edw.p_rst_finish_frontline" style="stroke: #A80036; stroke-width: 1.0;"/><polygon fill="#A80036" points="843.069,59.9735,836.5442,52.596,838.5209,57.8963,833.2207,59.8729,843.069,59.9735" style="stroke: #A80036; stroke-width: 1.0;"/><!--link edw.p_fct_detail_scgpwg2() to edw.p_rst_finish_sku--><path d="M308.517,59.9657 C334.394,48.7429 368.884,35.7624 401,30 C474.493,16.8135 495.983,14.3927 569,30 C594.227,35.3922 620.66,46.9896 641.346,57.6038 " fill="none" id="edw.p_fct_detail_scgpwg2()-edw.p_rst_finish_sku" style="stroke: #A80036; stroke-width: 1.0;"/><polygon fill="#A80036" points="645.938,59.9921,639.7991,52.2905,641.5021,57.6849,636.1077,59.3879,645.938,59.9921" style="stroke: #A80036; stroke-width: 1.0;"/><!--link edw.p_fct_detail_scgpwg2() to edw.p_rst_finish_zipper--><path d="M365.404,79.5 C375.308,79.5 385.212,79.5 395.116,79.5 " fill="none" id="edw.p_fct_detail_scgpwg2()-edw.p_rst_finish_zipper" style="stroke: #A80036; stroke-width: 1.0;"/><polygon fill="#A80036" points="400.296,79.5,391.296,75.5,395.296,79.5,391.296,83.5,400.296,79.5" style="stroke: #A80036; stroke-width: 1.0;"/><!--
@startuml
  [edw.p_cnt_opid()]->[edw.p_fct_detail_scgpwg2()]
[edw.p_fct_detail_scgpwg2()]->[edw.p_rst_finish_frontline]
[edw.p_fct_detail_scgpwg2()]->[edw.p_rst_finish_sku]
[edw.p_fct_detail_scgpwg2()]->[edw.p_rst_finish_zipper]
@enduml

PlantUML version 1.2017.14(Mon Jun 05 17:56:32 CST 2017)
(GPL source distribution)
Java Runtime: Java(TM) SE Runtime Environment
JVM: Java HotSpot(TM) 64-Bit Server VM
Java Version: 1.8.0_31-b13
Operating System: Windows 8.1
OS Version: 6.3
Default Encoding: GBK
Language: zh
Country: CN
--></g></svg>