<?xml version="1.0" encoding="UTF-8" standalone="no"?><svg xmlns="http://www.w3.org/2000/svg" xmlns:xlink="http://www.w3.org/1999/xlink" contentScriptType="application/ecmascript" contentStyleType="text/css" height="580px" preserveAspectRatio="none" style="width:568px;height:580px;" version="1.1" viewBox="0 0 568 580"
    width="568px" zoomAndPan="magnify"><defs><filter height="300%" id="f678yx9adggit" width="300%" x="-1" y="-1"><feGaussianBlur result="blurOut" stdDeviation="2.0"/><feColorMatrix in="blurOut" result="blurOut2" type="matrix" values="0 0 0 0 0 0 0 0 0 0 0 0 0 0 0 0 0 0 .4 0"/><feOffset dx="4.0" dy="4.0" in="blurOut2" result="blurOut3"/><feBlend in="SourceGraphic" in2="blurOut3" mode="normal"/></filter></defs><g><!--cluster 大数据服务器10.10.255.30--><polygon fill="#FFFFFF" filter="url(#f678yx9adggit)" points="22,24,202,24,209,49.1201,546,49.1201,546,366,22,366,22,24" style="stroke: #000000; stroke-width: 2.0;"/><line style="stroke: #000000; stroke-width: 2.0;" x1="22" x2="209" y1="49.1201" y2="49.1201"/><text fill="#000000" font-family="sans-serif" font-size="14" font-weight="bold" lengthAdjust="spacingAndGlyphs" textLength="174" x="26" y="42.0439">大数据服务器10.10.255.30</text><!--cluster 5432--><path d="M243,80 C243,70 293,70 293,70 C293,70 343,70 343,80 L343,168 C343,178 293,178 293,178 C293,178 243,178 243,168 L243,80 " fill="#FFFFFF" filter="url(#f678yx9adggit)" style="stroke: #000000; stroke-width: 2.0;"/><path d="M243,80 C243,90 293,90 293,90 C293,90 343,90 343,80 " fill="none" style="stroke: #000000; stroke-width: 2.0;"/><text fill="#000000" font-family="sans-serif" font-size="14" font-weight="bold" lengthAdjust="spacingAndGlyphs" textLength="32" x="277" y="107.0439">5432</text><!--cluster 15432--><path d="M54,220 C54,210 284,210 284,210 C284,210 514,210 514,220 L514,324 C514,334 284,334 284,334 C284,334 54,334 54,324 L54,220 " fill="#FFFFFF" filter="url(#f678yx9adggit)" style="stroke: #000000; stroke-width: 2.0;"/><path d="M54,220 C54,230 284,230 284,230 C284,230 514,230 514,220 " fill="none" style="stroke: #000000; stroke-width: 2.0;"/><text fill="#000000" font-family="sans-serif" font-size="14" font-weight="bold" lengthAdjust="spacingAndGlyphs" textLength="40" x="264" y="247.0439">15432</text><!--cluster ERP服务器192.168.2.46--><polygon fill="#FFFFFF" filter="url(#f678yx9adggit)" points="206,390,369,390,376,415.1201,379,415.1201,379,568,206,568,206,390" style="stroke: #000000; stroke-width: 2.0;"/><line style="stroke: #000000; stroke-width: 2.0;" x1="206" x2="376" y1="415.1201" y2="415.1201"/><text fill="#000000" font-family="sans-serif" font-size="14" font-weight="bold" lengthAdjust="spacingAndGlyphs" textLength="157" x="210" y="408.0439">ERP服务器192.168.2.46</text><!--cluster 1433--><path d="M238,446 C238,436 293,436 293,436 C293,436 348,436 348,446 L348,534 C348,544 293,544 293,544 C293,544 238,544 238,534 L238,446 " fill="#FFFFFF" filter="url(#f678yx9adggit)" style="stroke: #000000; stroke-width: 2.0;"/><path d="M238,446 C238,456 293,456 293,456 C293,456 348,456 348,446 " fill="none" style="stroke: #000000; stroke-width: 2.0;"/><text fill="#000000" font-family="sans-serif" font-size="14" font-weight="bold" lengthAdjust="spacingAndGlyphs" textLength="32" x="277" y="473.0439">1433</text><!--entity postgre--><rect fill="#FEFECE" filter="url(#f678yx9adggit)" height="39.1201" style="stroke: #A80036; stroke-width: 1.5;" width="68" x="259" y="123"/><rect fill="#FEFECE" height="5" style="stroke: #A80036; stroke-width: 1.5;" width="10" x="254" y="128"/><rect fill="#FEFECE" height="5" style="stroke: #A80036; stroke-width: 1.5;" width="10" x="254" y="152.1201"/><text fill="#000000" font-family="sans-serif" font-size="14" lengthAdjust="spacingAndGlyphs" textLength="48" x="269" y="149.0439">postgre</text><!--entity gp节点4--><rect fill="#FEFECE" filter="url(#f678yx9adggit)" height="39.1201" style="stroke: #A80036; stroke-width: 1.5;" width="72" x="418" y="271"/><rect fill="#FEFECE" height="5" style="stroke: #A80036; stroke-width: 1.5;" width="10" x="413" y="276"/><rect fill="#FEFECE" height="5" style="stroke: #A80036; stroke-width: 1.5;" width="10" x="413" y="300.1201"/><text fill="#000000" font-family="sans-serif" font-size="14" lengthAdjust="spacingAndGlyphs" textLength="52" x="428" y="297.0439">gp节点4</text><!--entity gp节点3--><rect fill="#FEFECE" filter="url(#f678yx9adggit)" height="39.1201" style="stroke: #A80036; stroke-width: 1.5;" width="72" x="311" y="271"/><rect fill="#FEFECE" height="5" style="stroke: #A80036; stroke-width: 1.5;" width="10" x="306" y="276"/><rect fill="#FEFECE" height="5" style="stroke: #A80036; stroke-width: 1.5;" width="10" x="306" y="300.1201"/><text fill="#000000" font-family="sans-serif" font-size="14" lengthAdjust="spacingAndGlyphs" textLength="52" x="321" y="297.0439">gp节点3</text><!--entity gp节点2--><rect fill="#FEFECE" filter="url(#f678yx9adggit)" height="39.1201" style="stroke: #A80036; stroke-width: 1.5;" width="72" x="204" y="271"/><rect fill="#FEFECE" height="5" style="stroke: #A80036; stroke-width: 1.5;" width="10" x="199" y="276"/><rect fill="#FEFECE" height="5" style="stroke: #A80036; stroke-width: 1.5;" width="10" x="199" y="300.1201"/><text fill="#000000" font-family="sans-serif" font-size="14" lengthAdjust="spacingAndGlyphs" textLength="52" x="214" y="297.0439">gp节点2</text><!--entity gp节点1--><rect fill="#FEFECE" filter="url(#f678yx9adggit)" height="39.1201" style="stroke: #A80036; stroke-width: 1.5;" width="72" x="97" y="271"/><rect fill="#FEFECE" height="5" style="stroke: #A80036; stroke-width: 1.5;" width="10" x="92" y="276"/><rect fill="#FEFECE" height="5" style="stroke: #A80036; stroke-width: 1.5;" width="10" x="92" y="300.1201"/><text fill="#000000" font-family="sans-serif" font-size="14" lengthAdjust="spacingAndGlyphs" textLength="52" x="107" y="297.0439">gp节点1</text><!--entity sqlserver--><rect fill="#FEFECE" filter="url(#f678yx9adggit)" height="39.1201" style="stroke: #A80036; stroke-width: 1.5;" width="78" x="254" y="489"/><rect fill="#FEFECE" height="5" style="stroke: #A80036; stroke-width: 1.5;" width="10" x="249" y="494"/><rect fill="#FEFECE" height="5" style="stroke: #A80036; stroke-width: 1.5;" width="10" x="249" y="518.1201"/><text fill="#000000" font-family="sans-serif" font-size="14" lengthAdjust="spacingAndGlyphs" textLength="58" x="264" y="515.0439">sqlserver</text><polygon fill="#FBFB77" filter="url(#f678yx9adggit)" points="10.5,468,10.5,549.0176,113.5,549.0176,113.5,478,103.5,468,10.5,468" style="stroke: #A80036; stroke-width: 1.0;"/><line style="stroke: #A80036; stroke-width: 1.0;" x1="103.5" x2="103.5" y1="468" y2="478"/><line style="stroke: #A80036; stroke-width: 1.0;" x1="113.5" x2="103.5" y1="478" y2="478"/><text fill="#000000" font-family="sans-serif" font-size="13" lengthAdjust="spacingAndGlyphs" textLength="60" x="16.5" y="487.8979">greenplum</text><text fill="#000000" font-family="sans-serif" font-size="13" lengthAdjust="spacingAndGlyphs" textLength="63" x="16.5" y="505.6523">单机4节点,</text><text fill="#000000" font-family="sans-serif" font-size="13" lengthAdjust="spacingAndGlyphs" textLength="82" x="16.5" y="523.4067">分布式列存储,</text><text fill="#000000" font-family="sans-serif" font-size="13" lengthAdjust="spacingAndGlyphs" textLength="78" x="16.5" y="541.1611">加快计算速度</text><!--link 15432 to GMN11--><path d="M62,334.1772 C62,334.4219 62,334.6673 62,334.9134 C62,335.4057 62,335.9007 62,336.3986 C62,337.3943 62,338.4009 62,339.4181 C62,341.4523 62,343.5283 62,345.6412 C62,349.8671 62,354.2408 62,358.7244 C62,394.5933 62,437.4955 62,467.992 " fill="none" id="15432-GMN11" style="stroke: #A80036; stroke-width: 1.0; stroke-dasharray: 7.0,7.0;"/><!--link postgre to gp节点1--><path d="M253.991,155.527 C232.323,163.707 205.99,176.295 187,194 C163.735,215.691 147.843,249.722 139.606,270.763 " fill="none" id="postgre-gp节点1" style="stroke: #A80036; stroke-width: 1.0;"/><polygon fill="#A80036" points="258.822,153.746,248.9939,153.1069,254.1308,155.4759,251.7618,160.6128,258.822,153.746" style="stroke: #A80036; stroke-width: 1.0;"/><!--link postgre to gp节点2--><path d="M284.433,167.099 C273.946,195.988 256.4,244.323 246.794,270.784 " fill="none" id="postgre-gp节点2" style="stroke: #A80036; stroke-width: 1.0;"/><polygon fill="#A80036" points="286.18,162.288,279.3489,169.3828,284.4738,166.9879,286.8688,172.1127,286.18,162.288" style="stroke: #A80036; stroke-width: 1.0;"/><!--link postgre to gp节点3--><path d="M301.728,167.099 C312.413,195.988 330.291,244.323 340.078,270.784 " fill="none" id="postgre-gp节点3" style="stroke: #A80036; stroke-width: 1.0;"/><polygon fill="#A80036" points="299.949,162.288,299.3214,172.1168,301.6844,166.9772,306.8241,169.3402,299.949,162.288" style="stroke: #A80036; stroke-width: 1.0;"/><!--link postgre to gp节点4--><path d="M332.317,155.138 C354.503,163.242 381.583,175.884 401,194 C424.154,215.603 439.653,249.661 447.632,270.731 " fill="none" id="postgre-gp节点4" style="stroke: #A80036; stroke-width: 1.0;"/><polygon fill="#A80036" points="327.373,153.377,334.5097,160.1643,332.0833,155.0542,337.1933,152.6278,327.373,153.377" style="stroke: #A80036; stroke-width: 1.0;"/><!--link gp节点1 to sqlserver--><path d="M147.4,314.724 C157.975,331.467 172.895,354.463 187,374 C217.489,416.23 256.157,463.494 277.347,488.9091 " fill="none" id="gp节点1-sqlserver" style="stroke: #A80036; stroke-width: 1.0;"/><polygon fill="#A80036" points="144.537,310.175,145.9475,319.9223,147.2011,314.4061,152.7173,315.6598,144.537,310.175" style="stroke: #A80036; stroke-width: 1.0;"/><!--link gp节点2 to sqlserver--><path d="M245.849,315.339 C256.496,358.728 278.824,449.726 288.438,488.9065 " fill="none" id="gp节点2-sqlserver" style="stroke: #A80036; stroke-width: 1.0;"/><polygon fill="#A80036" points="244.611,310.291,242.8709,319.9849,245.8025,315.147,250.6404,318.0785,244.611,310.291" style="stroke: #A80036; stroke-width: 1.0;"/><!--link gp节点3 to sqlserver--><path d="M341.04,315.339 C330.193,358.728 307.443,449.726 297.648,488.9065 " fill="none" id="gp节点3-sqlserver" style="stroke: #A80036; stroke-width: 1.0;"/><polygon fill="#A80036" points="342.302,310.291,336.2381,318.0517,341.089,315.1416,343.9991,319.9925,342.302,310.291" style="stroke: #A80036; stroke-width: 1.0;"/><!--link gp节点4 to sqlserver--><path d="M439.981,314.792 C429.658,331.568 415.033,354.575 401,374 C370.275,416.531 330.75,463.682 309.047,488.9972 " fill="none" id="gp节点4-sqlserver" style="stroke: #A80036; stroke-width: 1.0;"/><polygon fill="#A80036" points="442.775,310.233,434.6614,315.816,440.1621,314.4959,441.4821,319.9966,442.775,310.233" style="stroke: #A80036; stroke-width: 1.0;"/><!--
@startuml

package "大数据服务器10.10.255.30" {
    database "5432" {
        [postgre]
    }
    database "15432" {
        [gp节点4]
        [gp节点3]
        [gp节点2]
        [gp节点1]
    }
}
note bottom of 15432
greenplum
单机4节点,
分布式列存储,
加快计算速度
end note
package "ERP服务器192.168.2.46" {
    database "1433" {
        [sqlserver]
    }
}
[postgre] <- - [gp节点1]
[postgre] <- - [gp节点2]
[postgre] <- - [gp节点3]
[postgre] <- - [gp节点4]

[gp节点1] <- - [sqlserver]
[gp节点2] <- - [sqlserver]
[gp节点3] <- - [sqlserver]
[gp节点4] <- - [sqlserver]

@enduml

PlantUML version 1.2017.14(Mon Jun 05 17:56:32 CST 2017)
(GPL source distribution)
Java Runtime: Java(TM) SE Runtime Environment
JVM: Java HotSpot(TM) 64-Bit Server VM
Java Version: 1.8.0_31-b13
Operating System: Windows 8.1
OS Version: 6.3
Default Encoding: GBK
Language: zh
Country: CN
--></g></svg>